<svg width="100" height="100" viewBox="0 0 100 100" fill="none" xmlns="http://www.w3.org/2000/svg">
<path d="M82.2913 64.3062V13.5417C82.2913 12.4366 81.8524 11.3768 81.071 10.5954C80.2896 9.81399 79.2297 9.375 78.1247 9.375H21.8747C20.7696 9.375 19.7098 9.81399 18.9284 10.5954C18.147 11.3768 17.708 12.4366 17.708 13.5417V86.4583C17.708 87.5634 18.147 88.6232 18.9284 89.4046C19.7098 90.186 20.7696 90.625 21.8747 90.625H78.1247C79.2297 90.625 80.2896 90.186 81.071 89.4046C81.8524 88.6232 82.2913 87.5634 82.2913 86.4583V83.3979" stroke="black" stroke-linecap="round" stroke-linejoin="round"/>
<path d="M27.083 78.125H72.9163M77.3622 78.4583L44.3497 45.3646V35.9375H53.9997L86.8851 68.9125L77.3622 78.4583ZM92.3226 79.1354C92.954 78.5017 93.3085 77.6435 93.3085 76.749C93.3085 75.8544 92.954 74.9962 92.3226 74.3625L86.8851 68.9125L77.3643 78.4583L82.8018 83.9083C83.114 84.221 83.4849 84.4691 83.8932 84.6383C84.3014 84.8076 84.739 84.8947 85.1809 84.8947C85.6229 84.8947 86.0604 84.8076 86.4687 84.6383C86.8769 84.4691 87.2478 84.221 87.5601 83.9083L92.3226 79.1354ZM27.083 21.875H72.9163H27.083ZM27.083 35.9375H44.3497H27.083ZM68.0247 50H72.9163H68.0247ZM27.083 50H48.9747H27.083ZM27.083 64.0625H62.4768H27.083Z" stroke="black" stroke-linecap="round" stroke-linejoin="round"/>
</svg>
